HIERARCHY
ROOT Hips
{
	OFFSET 0.000000 83.214638 0.000000
	CHANNELS 6 Xposition Yposition Zposition Xrotation Yrotation Zrotation
	JOINT Pelvis
	{
		OFFSET 0.000000 0.000000 0.000000
		CHANNELS 3 Xrotation Yrotation Zrotation
		JOINT LeftUpLeg
		{
			OFFSET 8.479700 -4.795502 -0.379100
			CHANNELS 3 Xrotation Yrotation Zrotation
			JOINT LeftLeg
			{
				OFFSET 0.024144 -32.555107 0.112900
				CHANNELS 3 Xrotation Yrotation Zrotation
				JOINT LeftFoot
				{
					OFFSET -0.024144 -32.638630 -3.012600
					CHANNELS 3 Xrotation Yrotation Zrotation
					JOINT LeftToeBase
					{
						OFFSET 0.970200 -13.225400 11.864200
						CHANNELS 3 Xrotation Yrotation Zrotation
						End Site
						{
							OFFSET 0.000000 12.319262 0.000000
						}
					}
					JOINT LFootTongue
					{
						OFFSET 1.142400 -1.059800 6.665200
						CHANNELS 3 Xrotation Yrotation Zrotation
						End Site
						{
							OFFSET 0.000000 12.319262 0.000000
						}
					}
				}
				JOINT LeftPantLeg
				{
					OFFSET 0.918482 -16.533964 -2.284700
					CHANNELS 3 Xrotation Yrotation Zrotation
					End Site
					{
						OFFSET 0.350399 24.744368 0.000000
					}
				}
			}
		}
		JOINT RightUpLeg
		{
			OFFSET -8.479700 -4.795502 -0.379100
			CHANNELS 3 Xrotation Yrotation Zrotation
			JOINT RightLeg
			{
				OFFSET -0.023144 -32.555092 0.112900
				CHANNELS 3 Xrotation Yrotation Zrotation
				JOINT RightFoot
				{
					OFFSET 0.023144 -32.638641 -3.012700
					CHANNELS 3 Xrotation Yrotation Zrotation
					JOINT RightToeBase
					{
						OFFSET -0.970200 -13.225400 11.864200
						CHANNELS 3 Xrotation Yrotation Zrotation
						End Site
						{
							OFFSET 0.000000 12.319244 0.000000
						}
					}
					JOINT RFootTongue
					{
						OFFSET -1.142200 -1.059800 6.665200
						CHANNELS 3 Xrotation Yrotation Zrotation
						End Site
						{
							OFFSET 0.000000 12.319243 0.000000
						}
					}
				}
				JOINT RightPantLeg
				{
					OFFSET -0.919482 -16.533978 -2.284800
					CHANNELS 3 Xrotation Yrotation Zrotation
					End Site
					{
						OFFSET -0.350400 24.744419 0.000000
					}
				}
			}
		}
	}
	JOINT Spine
	{
		OFFSET 0.000000 7.722000 1.166200
		CHANNELS 3 Xrotation Yrotation Zrotation
		JOINT Spine1
		{
			OFFSET 0.000000 12.024101 0.248800
			CHANNELS 3 Xrotation Yrotation Zrotation
			JOINT Spine2
			{
				OFFSET 0.000000 11.502998 -0.491200
				CHANNELS 3 Xrotation Yrotation Zrotation
				JOINT Neck
				{
					OFFSET 0.000000 18.430702 -3.123100
					CHANNELS 3 Xrotation Yrotation Zrotation
					JOINT Head
					{
						OFFSET 0.000000 9.051102 1.034000
						CHANNELS 3 Xrotation Yrotation Zrotation
						JOINT HairB
						{
							OFFSET 0.208400 24.786102 24.822300
							CHANNELS 3 Xrotation Yrotation Zrotation
							End Site
							{
								OFFSET 0.000000 32.263779 0.000000
							}
						}
						JOINT HairA
						{
							OFFSET -7.081100 24.428299 23.196600
							CHANNELS 3 Xrotation Yrotation Zrotation
							End Site
							{
								OFFSET 0.000000 32.263779 0.000000
							}
						}
						JOINT Hat
						{
							OFFSET 16.728800 15.048294 -15.439601
							CHANNELS 3 Xrotation Yrotation Zrotation
							End Site
							{
								OFFSET 0.000000 32.263779 0.000000
							}
						}
					}
				}
				JOINT LeftShoulder
				{
					OFFSET 6.197800 13.665199 -4.064700
					CHANNELS 3 Xrotation Yrotation Zrotation
					JOINT LeftArm
					{
						OFFSET 7.778100 -0.187103 -1.709300
						CHANNELS 3 Xrotation Yrotation Zrotation
						JOINT LeftForeArm
						{
							OFFSET 22.049376 0.000000 0.000000
							CHANNELS 3 Xrotation Yrotation Zrotation
							JOINT LeftHand
							{
								OFFSET 23.009392 0.000000 0.000000
								CHANNELS 3 Xrotation Yrotation Zrotation
								JOINT LeftHandThumb1
								{
									OFFSET 3.507191 -2.063065 3.133727
									CHANNELS 3 Xrotation Yrotation Zrotation
									JOINT LeftHandThumb2
									{
										OFFSET 3.101337 -1.790558 1.790558
										CHANNELS 3 Xrotation Yrotation Zrotation
										JOINT LeftHandThumb3
										{
											OFFSET 3.058640 -1.765907 1.765906
											CHANNELS 3 Xrotation Yrotation Zrotation
											End Site
											{
												OFFSET -0.415260 3.926476 -0.049563
											}
										}
									}
								}
								JOINT LeftHandIndex1
								{
									OFFSET 11.334419 -0.901459 3.706815
									CHANNELS 3 Xrotation Yrotation Zrotation
									JOINT LeftHandIndex2
									{
										OFFSET 3.283112 0.000000 0.000000
										CHANNELS 3 Xrotation Yrotation Zrotation
										JOINT LeftHandIndex3
										{
											OFFSET 3.323853 0.000000 0.000000
											CHANNELS 3 Xrotation Yrotation Zrotation
											End Site
											{
												OFFSET -1.135597 3.097809 0.402452
											}
										}
									}
								}
								JOINT LeftHandMiddle1
								{
									OFFSET 11.335861 0.000000 0.000000
									CHANNELS 3 Xrotation Yrotation Zrotation
									JOINT LeftHandMiddle2
									{
										OFFSET 3.410492 0.000000 0.000000
										CHANNELS 3 Xrotation Yrotation Zrotation
										JOINT LeftHandMiddle3
										{
											OFFSET 3.312172 0.000000 0.000000
											CHANNELS 3 Xrotation Yrotation Zrotation
											End Site
											{
												OFFSET -1.150200 3.080154 0.400270
											}
										}
									}
								}
								JOINT LeftHandRing1
								{
									OFFSET 11.514786 -0.013176 -3.003090
									CHANNELS 3 Xrotation Yrotation Zrotation
									JOINT LeftHandRing2
									{
										OFFSET 3.053307 0.000000 0.000000
										CHANNELS 3 Xrotation Yrotation Zrotation
										JOINT LeftHandRing3
										{
											OFFSET 3.295807 0.000000 0.000000
											CHANNELS 3 Xrotation Yrotation Zrotation
											End Site
											{
												OFFSET -1.281006 3.013344 0.375733
											}
										}
									}
								}
								JOINT LeftHandPinky1
								{
									OFFSET 10.518692 -0.960396 -5.730441
									CHANNELS 3 Xrotation Yrotation Zrotation
									JOINT LeftHandPinky2
									{
										OFFSET 2.861649 0.000000 0.000000
										CHANNELS 3 Xrotation Yrotation Zrotation
										JOINT LeftHandPinky3
										{
											OFFSET 2.863380 0.000000 0.000000
											CHANNELS 3 Xrotation Yrotation Zrotation
											End Site
											{
												OFFSET -0.843597 2.711159 0.369971
											}
										}
									}
								}
							}
							JOINT LSleeve
							{
								OFFSET 6.676277 -0.344902 -1.011730
								CHANNELS 3 Xrotation Yrotation Zrotation
								End Site
								{
									OFFSET 0.000000 14.885353 0.000000
								}
							}
						}
					}
				}
				JOINT RightShoulder
				{
					OFFSET -6.197800 13.665199 -4.064700
					CHANNELS 3 Xrotation Yrotation Zrotation
					JOINT RightArm
					{
						OFFSET -7.778100 -0.187103 -1.709300
						CHANNELS 3 Xrotation Yrotation Zrotation
						JOINT RightForeArm
						{
							OFFSET -22.049376 0.000000 0.000000
							CHANNELS 3 Xrotation Yrotation Zrotation
							JOINT RightHand
							{
								OFFSET -23.009392 0.000000 0.000000
								CHANNELS 3 Xrotation Yrotation Zrotation
								JOINT RightHandThumb1
								{
									OFFSET -3.507191 -2.063065 3.133727
									CHANNELS 3 Xrotation Yrotation Zrotation
									JOINT RightHandThumb2
									{
										OFFSET -3.101337 -1.790558 1.790558
										CHANNELS 3 Xrotation Yrotation Zrotation
										JOINT RightHandThumb3
										{
											OFFSET -3.058640 -1.765907 1.765906
											CHANNELS 3 Xrotation Yrotation Zrotation
											End Site
											{
												OFFSET 0.415260 3.926476 -0.049563
											}
										}
									}
								}
								JOINT RightHandIndex1
								{
									OFFSET -11.334419 -0.901459 3.706815
									CHANNELS 3 Xrotation Yrotation Zrotation
									JOINT RightHandIndex2
									{
										OFFSET -3.283112 0.000000 0.000000
										CHANNELS 3 Xrotation Yrotation Zrotation
										JOINT RightHandIndex3
										{
											OFFSET -3.323853 0.000000 0.000000
											CHANNELS 3 Xrotation Yrotation Zrotation
											End Site
											{
												OFFSET 1.135597 3.097809 0.402452
											}
										}
									}
								}
								JOINT RightHandMiddle1
								{
									OFFSET -11.335861 0.000000 0.000000
									CHANNELS 3 Xrotation Yrotation Zrotation
									JOINT RightHandMiddle2
									{
										OFFSET -3.410492 0.000000 0.000000
										CHANNELS 3 Xrotation Yrotation Zrotation
										JOINT RightHandMiddle3
										{
											OFFSET -3.312172 0.000000 0.000000
											CHANNELS 3 Xrotation Yrotation Zrotation
											End Site
											{
												OFFSET 1.150200 3.080154 0.400270
											}
										}
									}
								}
								JOINT RightHandRing1
								{
									OFFSET -11.514786 -0.013176 -3.003090
									CHANNELS 3 Xrotation Yrotation Zrotation
									JOINT RightHandRing2
									{
										OFFSET -3.053307 0.000000 0.000000
										CHANNELS 3 Xrotation Yrotation Zrotation
										JOINT RightHandRing3
										{
											OFFSET -3.295807 0.000000 0.000000
											CHANNELS 3 Xrotation Yrotation Zrotation
											End Site
											{
												OFFSET 1.281006 3.013344 0.375733
											}
										}
									}
								}
								JOINT RightHandPinky1
								{
									OFFSET -10.518692 -0.960396 -5.730441
									CHANNELS 3 Xrotation Yrotation Zrotation
									JOINT RightHandPinky2
									{
										OFFSET -2.861649 0.000000 0.000000
										CHANNELS 3 Xrotation Yrotation Zrotation
										JOINT RightHandPinky3
										{
											OFFSET -2.863380 0.000000 0.000000
											CHANNELS 3 Xrotation Yrotation Zrotation
											End Site
											{
												OFFSET 0.843597 2.711159 0.369971
											}
										}
									}
								}
							}
							JOINT RSleeve
							{
								OFFSET -6.676277 -0.344902 -1.011730
								CHANNELS 3 Xrotation Yrotation Zrotation
								End Site
								{
									OFFSET 0.000000 14.885353 0.000000
								}
							}
						}
					}
				}
				JOINT Backpack
				{
					OFFSET 0.000000 -2.471497 36.677502
					CHANNELS 3 Xrotation Yrotation Zrotation
					End Site
					{
						OFFSET 0.000000 20.427315 0.000000
					}
				}
				JOINT Hood
				{
					OFFSET 0.000000 18.754097 -10.431000
					CHANNELS 3 Xrotation Yrotation Zrotation
					JOINT Hood1
					{
						OFFSET 0.000000 -5.011002 -7.685901
						CHANNELS 3 Xrotation Yrotation Zrotation
						End Site
						{
							OFFSET 0.000000 9.175140 0.000000
						}
					}
				}
				JOINT LHoodieString
				{
					OFFSET 5.250500 16.397697 3.089900
					CHANNELS 3 Xrotation Yrotation Zrotation
					JOINT LHoodieString1
					{
						OFFSET 0.257700 -6.364304 3.694600
						CHANNELS 3 Xrotation Yrotation Zrotation
						JOINT LHoodieString2
						{
							OFFSET 0.000000 -9.643799 2.679100
							CHANNELS 3 Xrotation Yrotation Zrotation
							End Site
							{
								OFFSET 0.000000 10.009018 0.000000
							}
						}
					}
				}
				JOINT RHoodieString
				{
					OFFSET -5.250500 16.397697 3.089900
					CHANNELS 3 Xrotation Yrotation Zrotation
					JOINT RHoodieString1
					{
						OFFSET -0.257700 -6.364304 3.694600
						CHANNELS 3 Xrotation Yrotation Zrotation
						JOINT RHoodieString2
						{
							OFFSET 0.000000 -9.643799 2.679100
							CHANNELS 3 Xrotation Yrotation Zrotation
							End Site
							{
								OFFSET 0.000000 10.009018 0.000000
							}
						}
					}
				}
			}
			JOINT LBackpack_Strap
			{
				OFFSET 15.223200 -7.719803 -6.610900
				CHANNELS 3 Xrotation Yrotation Zrotation
				End Site
				{
					OFFSET 0.000000 16.040596 0.000000
				}
			}
			JOINT RBackpack_Strap
			{
				OFFSET -15.223000 -7.719803 -6.610900
				CHANNELS 3 Xrotation Yrotation Zrotation
				End Site
				{
					OFFSET 0.000000 16.040596 0.000000
				}
			}
		}
	}
	JOINT BoyFacialAnim_Joint
	{
		OFFSET 1.000000 -82.208099 -1.550900
		CHANNELS 3 Xrotation Yrotation Zrotation
		End Site
		{
			OFFSET 0.000000 30.012791 0.000000
		}
	}
}
MOTION
Frames: 4
Frame Time: 0.016667
-1.454607 81.478035 -1.298775 1.168794 6.158148 5.740327 -0.000000 -0.000000 -0.000000 -9.433874 6.242240 0.386524 15.273676 4.889458 0.231088 -4.580139 0.450493 -5.028019 -0.000000 -0.000001 -0.000000 -0.000000 -0.000001 -0.000000 -0.000000 0.000002 0.000000 -14.387046 -11.065064 -13.279076 25.666560 -0.673246 -1.950493 -12.210479 -8.208547 6.932534 0.000000 -0.000000 0.000000 0.000000 -0.000000 0.000000 -0.000002 -0.000000 0.000000 8.190652 -0.970330 6.580587 1.977284 -0.412824 1.344542 1.971130 -0.404077 1.350294 1.471615 0.251577 3.770396 -5.997184 -13.685525 -0.924697 -0.000001 -0.000001 -0.000001 -0.000001 -0.000001 -0.000001 -0.000001 -0.000001 -0.000001 0.635352 -5.283651 -12.880633 5.726507 -4.951279 -42.398638 0.000009 -65.564372 -0.000014 -5.370034 -8.061429 -58.939697 -7.220027 -16.942342 15.004585 8.206660 0.329532 4.976429 0.000000 0.000000 -0.000003 -0.931694 -1.396872 -13.797129 1.148782 3.485798 -36.471007 -0.000000 -0.000002 -0.000000 0.832893 5.259385 -29.649155 1.128746 3.458562 -36.139972 0.000007 -0.000002 0.000001 6.569944 12.601591 -38.071222 2.521129 4.813800 -55.264659 -0.000001 0.000000 -0.000004 9.474821 25.638713 -47.960014 1.102911 3.422987 -35.709633 0.000000 0.000001 -0.000004 0.000001 0.000002 -0.000002 1.688119 19.320710 11.981023 -17.246742 18.683096 60.973126 -0.000356 95.131831 0.000344 -19.139421 -6.743529 -4.914009 17.887593 49.319065 12.919648 30.991956 -39.602864 28.049280 -0.000001 0.000000 0.000000 3.343381 -6.897287 53.623252 1.487427 -3.413773 47.076515 -0.000002 -0.000003 -0.000004 3.298269 -6.778211 63.367025 1.097374 -3.004799 40.118182 -0.000002 -0.000000 -0.000002 5.188531 -7.512434 67.475869 0.689916 -2.441254 31.557417 0.000000 0.000000 -0.000001 0.768541 -22.546618 59.828933 1.001578 -2.887423 38.254127 -0.000001 -0.000001 0.000002 -0.000001 -0.000000 -0.000001 -0.000002 0.000000 0.000001 -0.000002 0.000000 0.000001 -0.000002 0.000000 0.000001 -0.000002 0.000000 0.000001 -0.000002 0.000000 0.000000 -0.000002 0.000000 0.000000 -0.000002 0.000000 0.000001 -0.000002 0.000000 0.000000 -0.000002 0.000000 0.000000 -0.000000 0.000000 0.000000 -0.000000 0.000000 0.000000 -0.000000 -0.000000 -0.000000 
-1.427868 81.473724 -1.250815 1.139339 6.089246 5.748240 -0.000000 0.000000 -0.000000 -9.344052 6.272484 0.368812 15.299697 4.914134 0.218378 -4.691250 0.451785 -4.968469 0.000000 -0.000000 -0.000000 0.000000 -0.000000 -0.000000 0.000000 -0.000001 0.000001 -14.252313 -10.771167 -13.218603 25.656313 -0.898260 -1.951854 -12.228228 -8.235705 7.011855 0.000000 0.000000 0.000000 0.000000 0.000000 0.000000 -0.000002 0.000001 0.000000 8.156966 -1.120211 6.585690 1.971236 -0.454237 1.335349 1.964733 -0.445019 1.341882 1.502342 0.283006 3.704583 -6.423701 -13.408006 -1.036776 0.000000 -0.000000 -0.000001 0.000000 -0.000000 -0.000001 0.000000 -0.000000 -0.000001 0.638346 -5.316638 -12.830689 5.804762 -5.004719 -42.414939 0.000011 -65.564284 -0.000004 -5.414974 -8.062195 -59.000690 -7.220027 -16.942339 15.004589 8.205362 0.326292 4.976829 -0.000001 0.000002 0.000000 -0.925470 -1.417176 -13.702031 1.148263 3.485088 -36.462176 -0.000002 -0.000001 -0.000005 0.830596 5.255391 -29.604082 1.128867 3.458720 -36.142151 -0.000000 0.000000 0.000000 6.563253 12.601798 -38.034554 2.517012 4.810940 -55.215751 0.000000 -0.000000 -0.000002 9.464143 25.640221 -47.933045 1.103978 3.424477 -35.727517 0.000000 0.000000 -0.000002 0.000001 0.000001 -0.000002 1.742141 19.638221 11.894624 -14.648411 20.367937 60.669183 0.000787 96.790017 -0.000778 -19.473467 -6.938344 -5.387769 16.983662 48.490436 13.131555 30.991970 -39.602878 28.049271 -0.000004 0.000005 0.000004 3.357186 -6.907518 53.814668 1.499358 -3.424809 47.276691 -0.000000 0.000001 0.000006 3.331216 -6.794231 63.393561 1.109694 -3.019331 40.352498 -0.000001 -0.000001 -0.000000 5.186952 -7.514259 67.421863 0.696302 -2.451629 31.707330 -0.000001 -0.000001 -0.000003 0.773509 -22.549299 59.891449 0.988326 -2.870545 37.990301 0.000001 -0.000002 0.000002 0.000001 -0.000001 -0.000005 -0.000000 0.000000 0.000000 -0.000000 0.000000 0.000000 -0.000000 0.000000 0.000000 -0.000000 0.000000 0.000000 -0.000000 0.000000 0.000000 -0.000000 -0.000000 0.000000 -0.000000 0.000000 0.000000 -0.000000 0.000000 0.000000 -0.000000 -0.000000 0.000000 0.000001 0.000000 -0.000000 0.000001 0.000000 -0.000000 -0.000000 0.000000 -0.000000 
-1.401757 81.469078 -1.206369 1.105855 6.013407 5.739069 -0.000000 0.000000 -0.000001 -9.256176 6.298571 0.380335 15.321641 4.944981 0.203138 -4.778922 0.453576 -4.972134 -0.000000 -0.000002 -0.000000 -0.000000 -0.000002 -0.000000 -0.000001 0.000000 -0.000000 -14.108728 -10.476715 -13.138799 25.636599 -1.123380 -1.953131 -12.238253 -8.260866 7.087420 0.000000 0.000001 0.000000 0.000000 0.000001 0.000000 -0.000001 -0.000000 -0.000000 8.122613 -1.298589 6.588511 1.966687 -0.503289 1.325315 1.959776 -0.493538 1.332815 1.524708 0.316485 3.633391 -6.840204 -13.129490 -1.161065 0.000001 -0.000000 0.000000 0.000001 -0.000000 0.000000 0.000001 -0.000000 0.000000 0.638521 -5.362368 -12.762705 5.906807 -5.087486 -42.408819 0.000001 -65.558615 -0.000007 -5.511686 -8.054023 -59.056397 -7.220028 -16.942346 15.004587 8.201852 0.319212 4.980776 0.000002 -0.000000 -0.000001 -0.919230 -1.438407 -13.606791 1.147732 3.484412 -36.453836 -0.000001 -0.000002 -0.000005 0.828529 5.251738 -29.562899 1.128915 3.458815 -36.143257 0.000001 -0.000003 0.000005 6.558692 12.601981 -38.009228 2.513632 4.808608 -55.175395 0.000001 -0.000001 -0.000002 9.456742 25.641273 -47.914337 1.106374 3.427793 -35.767600 0.000001 -0.000002 0.000001 0.000001 0.000001 0.000000 1.812173 19.996175 11.753379 -12.150136 22.247791 60.206055 0.000323 98.202609 -0.000329 -19.507451 -7.108542 -5.826918 16.072007 47.646320 13.324331 30.992018 -39.602840 28.049285 0.000004 -0.000004 0.000001 3.371440 -6.918015 54.010954 1.511640 -3.436097 47.481938 0.000001 0.000000 0.000002 3.365037 -6.810620 63.420786 1.122383 -3.034172 40.592777 -0.000002 0.000001 -0.000002 5.185273 -7.516142 67.366484 0.702904 -2.462249 31.861118 -0.000003 -0.000002 0.000004 0.778654 -22.552035 59.955558 0.974795 -2.853199 37.719761 0.000000 0.000000 0.000000 -0.000000 0.000000 -0.000000 -0.000000 0.000000 -0.000000 -0.000000 0.000000 -0.000000 -0.000000 0.000000 -0.000000 -0.000000 0.000000 -0.000000 -0.000000 0.000000 -0.000000 -0.000000 -0.000000 -0.000002 -0.000000 0.000000 -0.000000 -0.000000 0.000000 -0.000000 -0.000000 -0.000000 -0.000002 -0.000000 -0.000000 -0.000000 -0.000000 -0.000000 -0.000000 -0.000000 0.000000 -0.000001 
-1.371363 81.465691 -1.163707 1.079519 5.956230 5.719004 0.000000 0.000000 -0.000000 -9.180595 6.325912 0.398789 15.341699 4.952808 0.186359 -4.868901 0.455098 -4.964354 0.000000 -0.000001 -0.000000 0.000000 -0.000001 -0.000000 -0.000001 0.000001 0.000001 -13.957936 -10.180021 -13.048358 25.596264 -1.374365 -1.954363 -12.236566 -8.285205 7.171095 0.000000 0.000002 -0.000000 0.000000 0.000002 -0.000000 -0.000002 -0.000000 -0.000000 8.092419 -1.500267 6.584872 1.963648 -0.558698 1.313115 1.956315 -0.548352 1.321720 1.539980 0.351073 3.559215 -7.224477 -12.849051 -1.292568 0.000000 -0.000001 -0.000001 0.000000 -0.000001 -0.000001 0.000000 -0.000001 -0.000001 0.637409 -5.414065 -12.664165 6.031516 -5.194023 -42.395240 -0.000018 -65.552071 -0.000014 -5.622246 -8.057216 -59.067414 -7.220026 -16.942346 15.004587 8.194852 0.306788 4.986429 0.000001 0.000003 -0.000003 -0.913716 -1.457647 -13.524785 1.147209 3.483668 -36.444906 0.000001 -0.000006 0.000001 0.826830 5.248751 -29.529203 1.128994 3.458919 -36.144350 -0.000003 -0.000000 0.000004 6.557034 12.602172 -37.999542 2.511931 4.807429 -55.155208 0.000000 0.000000 -0.000000 9.453380 25.641754 -47.905796 1.108091 3.430165 -35.796236 0.000001 -0.000001 0.000001 -0.000000 0.000001 -0.000001 1.891718 20.393154 11.594519 -9.757496 24.346231 59.504096 0.000761 99.316941 -0.000744 -19.132779 -7.232182 -6.153895 15.156362 46.791334 13.496863 30.992048 -39.602810 28.049304 0.000001 0.000001 0.000001 3.386108 -6.928683 54.211229 1.524201 -3.447555 47.691349 -0.000002 -0.000002 0.000005 3.399550 -6.827324 63.448551 1.135377 -3.049279 40.837957 0.000000 0.000003 0.000002 5.183530 -7.518018 67.309977 0.709659 -2.473089 32.018096 0.000001 0.000003 0.000001 0.783947 -22.554840 60.020991 0.961106 -2.835426 37.443753 -0.000000 0.000001 0.000004 0.000000 -0.000001 -0.000001 -0.000000 0.000000 0.000001 -0.000000 0.000000 0.000001 -0.000000 0.000000 0.000001 -0.000000 0.000000 0.000001 -0.000000 0.000000 0.000001 -0.000000 0.000000 0.000001 -0.000000 0.000000 0.000001 -0.000000 0.000000 0.000001 -0.000000 0.000000 0.000001 0.000001 -0.000000 -0.000001 0.000001 -0.000000 -0.000001 0.000000 0.000000 -0.000000 
